<?xml version="1.0" encoding="utf-8"?>
<!-- Generator: Adobe Illustrator 22.0.1, SVG Export Plug-In . SVG Version: 6.00 Build 0)  -->
<svg version="1.1" id="Ebene_1" xmlns="http://www.w3.org/2000/svg" xmlns:xlink="http://www.w3.org/1999/xlink" x="0px" y="0px"
	 viewBox="0 0 360.8 194" style="enable-background:new 0 0 360.8 194;" xml:space="preserve">
<style type="text/css">
	.st0{fill:#FFFFFF;}
	.st1{fill:#FBBA00;}
</style>
<path class="st0" d="M140.6,101.4c-1.2-0.2-1.5-0.2-1.9-0.8c-0.2-0.4-0.4-0.3-0.4-3.7V67.7h1c2.4,0,2.4-0.1,2.4-2.4v-3.7
	c0-2.5,0-2.4-2.4-2.4h-1v-6.3c0-1.8-0.6-2.2-2.4-2.2h-6.5c-1.8,0-2.4,0.3-2.4,2.2v6.3h-0.3c-2.4,0-2.4,0.1-2.4,2.4v3.7
	c0,2.4,0,2.4,1.6,2.4h1.2v34.4c0,1.4,0.5,3.8,1.4,4.9c0.9,1.1,2.2,1.7,3.4,2.1c1.2,0.3,2.6,0.4,5.3,0.4h2.6c2.4,0,2.6-0.4,2.6-4.2
	C142.3,102.7,142.1,101.7,140.6,101.4"/>
<path class="st0" d="M120.2,63.8c-0.4-1.9-1-3.6-2.3-4.8c-1.3-1.3-2.6-1.9-4.7-1.9c-1.8,0-3.3,0.6-4.4,1.3c-1.2,0.8-2.8,2.2-3.8,3.9
	l0.1-1c0-1.8,0.2-3.3-2.7-3.3h-6c-2.7,0-2.7,1.5-2.7,3.3v45.4c0,1.8,0.1,2.7,2.7,2.7h5.7c2.7,0,2.7-0.9,2.7-2.7V70.3
	c0-3.9,1.7-4.1,2.5-4.1s2.4,0.2,2.4,3.8v36.4c0,1.8-0.1,3,2.4,3h6.6c2.4,0,2.2-1.2,2.2-3v-33C120.7,68.9,120.6,65.7,120.2,63.8"/>
<path class="st0" d="M78.7,75.8h-5.3v-3.3c0-2.9,0.2-4.2,0.4-4.9c0.2-0.7,1.1-1.5,2.3-1.5c1,0,2,0.8,2.3,1.5
	c0.2,0.8,0.3,2.2,0.3,4.9C78.7,72.5,78.7,75.8,78.7,75.8z M89.4,75.9c0-17.5-9.8-18.8-13.4-18.8c-2.8,0-13.7-0.1-13.7,18.7v14.6
	c0,3.8,0.2,6.7,0.6,8.8c2,9.6,9.2,10.9,13.3,10.9c3.6,0,10.7-0.5,12.7-11.3c0.3-1.7,0.5-5,0.5-8.2v-0.9l0,0v-1.5
	c0-2.7-1.2-2.4-3-2.4h-5.1c-1.8,0-2.4-0.1-2.4,2.4v7.7c0,2.6-0.2,5.1-2.8,5.1c-2.3,0-2.6-1.7-2.6-5.6V81h14.2
	C89.3,81,89.4,79.8,89.4,75.9"/>
<path class="st0" d="M20.8,75.8h-5.3v-3.3c0-2.9,0.2-4.2,0.4-4.9c0.2-0.7,1.1-1.5,2.3-1.5c1,0,2,0.8,2.3,1.5
	c0.2,0.8,0.3,2.2,0.3,4.9C20.8,72.5,20.8,75.8,20.8,75.8z M31.4,75.9c0-17.5-9.8-18.8-13.4-18.8c-2.8,0-13.7-0.1-13.7,18.7v14.6
	c0,3.8,0.2,6.7,0.6,8.8c2,9.6,9.2,10.9,13.3,10.9c3.6,0,10.7-0.5,12.7-11.3c0.3-1.7,0.5-5,0.5-8.2v-0.9l0,0v-1.5
	c0-2.7-1.2-2.4-3-2.4h-5.1c-1.8,0-2.4-0.1-2.4,2.4v7.7c0,2.6-0.2,5.1-2.8,5.1c-2.3,0-2.6-1.7-2.6-5.6V81h14.2
	C31.4,81,31.4,79.8,31.4,75.9"/>
<path class="st0" d="M57.8,57.4h-4.9c-3,0-2.9,0.7-3.1,3c0,0-2.5,35.9-2.5,36.1c0,0.3-0.4,0.2-0.4,0s-3-36.1-3-36.1
	c-0.2-2.3,0-3-3.1-3h-4.9c-2.6,0-2.5,1.4-2.2,3.3l5.7,44.1l0,0l0.2,1.4c0.4,2.4,1,3.3,3.2,3.3h8.1c2.4,0,3.1-0.8,3.5-3.4L60,60.7
	C60.3,58.8,60.4,57.4,57.8,57.4"/>
<path class="st0" d="M154.8,58h-6.3c-1.8,0-2.4,0.6-2.4,2.5V107c0,1.8,0.6,2.5,2.4,2.5h6.4c1.8,0,2.4-0.6,2.4-2.5V60.5
	C157.2,58.6,156.6,58,154.8,58"/>
<path class="st0" d="M173,107c0,0,0-37.3,0-38c0-1,0.3-1.7,0.7-2.1c0.5-0.5,1.4-0.7,2.1-0.6c0.9,0.2,1.3,0.8,1.5,1.6
	c0.2,1,0.2,4,0.2,9.1v30.1c0,1.8,0.6,2.4,2.4,2.4h6.3c1.8,0,2.4-0.6,2.4-2.5V73.2c0-3.4-0.1-4.4,0.3-5.4c0.3-1,1.3-1.5,2.2-1.5
	c0.8,0,1.6,0.6,1.8,1.5c0.3,1.2,0.2,3.8,0.2,8.2v31.1c0,1.8,0.6,2.5,2.4,2.5h6.3c1.8,0,2.4-0.6,2.4-2.5V73c0-4.2-0.2-7.3-0.6-9.1
	c-0.4-1.9-1.2-3.5-2.6-4.8c-1.3-1.3-2.5-1.9-4.6-1.9c-1.8,0-3.8,1-4.8,1.9c-1.2,1-2.2,1.9-3.5,4c-1.4-3.9-3.5-5.8-6.7-5.8
	c-2.2,0-3.6,0.9-4.7,1.7c-1.7,1.2-3.7,4-3.7,4l0,0v-2.3c0-1.8-0.6-2.5-2.4-2.5h-5.4c-3.4,0-3.3,0.6-3.3,2.5V107
	c0,1.8,0.2,2.5,3.6,2.5h5.1C172.4,109.5,173,108.8,173,107"/>
<path class="st0" d="M155.4,46.7h-7.5c-1.8,0-1.9,0.6-1.9,2.4v3.2c0,1.8,0,2.5,1.9,2.5h7.5c1.8,0,1.9-0.6,1.9-2.5v-3.2
	C157.2,47.4,157.2,46.7,155.4,46.7"/>
<path class="st1" d="M316.8,64.8l-1.1,15.4c-0.8,12-10.9,21.3-22.9,21.3h-17.3c-11.6,0-19.6-9-19.6-20.6V63.7
	c0-12.8,9-21.8,21.7-21.8h16.9C307.9,41.8,317.8,51.4,316.8,64.8 M319.1,64.8c0.9-13.4,11.1-22.9,24.5-22.9h16l0.1-2.4h-16
	c-13.4,0-22.1-10.5-21.1-23.9l1-14.5h-2.3l-1,14.5c-1,13.4-12.3,23.9-25.7,23.9h-16.9c-12.8,0-21.7-10-21.7-22.8V2.9h-2.3v13.9
	c0,12.8-10,22.8-22.8,22.8h-15.3v2.3h15.3c12.8,0,22.8,9,22.8,21.8v17.2c0,11.6-9,20.6-20.6,20.6h-13.9v2.3H233
	c11.6,0,20.6,8.1,20.6,19.7v15.4c0,11-8.5,19.6-19.6,19.6h-17.2c-9.5,0-18.1-8.2-18.8-18.6l-0.6-11.2H195l0.8,11.3
	c0.7,10.5-6.7,18.5-17.2,18.5H166v2.3h12.6c10.4,0,19.3,7.1,20.1,17.5l0.8,11.5h2.2l-0.8-11.5c-0.7-10.5,5.6-17.5,16-17.5H234
	c11,0,19.7,7.6,19.7,18.6v12.1h2.2v-12.1c0-11,7.5-18.6,18.5-18.6h13.2v-2.3h-13.2c-11,0-18.5-8.6-18.5-19.6v-15.4
	c0-11.6,8-19.6,19.6-19.6h17.3c12,0,20.7,8.4,19.8,20.3l-0.9,13.2h2.2l0.9-13.2c0.8-12,9.8-20.3,21.7-20.3H351v-2.3h-14.3
	c-12,0-19.5-9.3-18.6-21.3L319.1,64.8z"/>
</svg>
